<svg width="112" height="24" viewBox="54 9 112 25" fill="none" xmlns="http://www.w3.org/2000/svg">
<path d="M76.939 33.2725H68.6474L63.9754 24.3074C63.8912 24.1671 63.6668 23.7743 63.302 23.1289C62.9653 22.4835 62.5865 21.8662 62.1656 21.2769V33.2725H54.5894V9.28141H62.1656V20.1826C62.6426 19.6495 63.0494 19.0742 63.3862 18.4569C63.7509 17.8116 63.9614 17.4328 64.0175 17.3205L68.5211 9.28141H76.5181L71.7199 17.3205C71.6357 17.4328 71.4533 17.7274 71.1727 18.2044C70.8921 18.6814 70.5835 19.1304 70.2468 19.5513C69.9381 19.9441 69.6014 20.3089 69.2366 20.6456C69.7417 21.1226 70.1485 21.5996 70.4572 22.0766C70.7939 22.5256 71.1727 23.1289 71.5936 23.8865L76.939 33.2725ZM100.222 33.2725H92.2668L90.8358 27.2116C90.7797 26.9871 90.6815 26.6083 90.5412 26.0751C90.4289 25.514 90.2886 25.1071 90.1203 24.8545C89.9519 24.574 89.7134 24.3916 89.4047 24.3074C88.6191 24.3354 87.4686 24.3495 85.9534 24.3495V33.2725H78.3773V9.49186C81.7725 9.23932 84.9432 9.11305 87.8895 9.11305C90.5552 9.11305 92.7158 9.33753 94.3713 9.78649C96.0268 10.2074 97.2615 10.951 98.0752 12.0172C98.917 13.0554 99.3379 14.4865 99.3379 16.3104C99.3379 18.022 98.945 19.3689 98.1594 20.351C97.3737 21.305 96.111 21.8802 94.3713 22.0766V22.3292C95.3534 22.4134 96.1671 22.736 96.8125 23.2972C97.4859 23.8304 97.9349 24.5178 98.1594 25.3596L100.222 33.2725ZM85.9534 19.5934C86.2059 19.6214 86.697 19.6354 87.4265 19.6354C89.5871 19.6354 90.8498 19.4531 91.2146 19.0883C91.5513 18.7516 91.7197 17.9659 91.7197 16.7313C91.7197 15.5808 91.411 14.7951 90.7937 14.3742C90.2044 13.9534 89.2224 13.7429 87.8474 13.7429C87.5388 13.7429 86.9074 13.771 85.9534 13.8271V19.5934ZM116.261 28.0113H109.274L108.012 33.2725H100.267L108.012 9.28141H117.903L125.31 33.2725H117.524L116.261 28.0113ZM112.726 14.4584L110.242 23.3393H115.251L112.894 14.4584H112.726ZM126.898 9.28141H144.113V14.5005H134.474V19.2566H142.429V23.8444H134.474V33.2725H126.898V9.28141ZM158.835 33.2725H151.259V14.5426H144.482V9.28141H165.611V14.5426H158.835V33.2725Z" fill="white"></path>
</svg>