<svg width="167" height="47" viewBox="0 0 167 47" fill="none" xmlns="http://www.w3.org/2000/svg">
<path fill-rule="evenodd" clip-rule="evenodd" d="M4.53141 12.3745C4.46544 12.0109 4.41889 11.644 4.39195 11.2754C4.26289 9.43332 4.68336 7.50794 6.09669 6.09669C8.11573 4.07764 11.1089 4.0818 13.6733 4.84155C13.8759 4.90122 14.0778 4.96644 14.279 5.03721L14.6433 5.16834C17.4804 6.23823 17.8696 9.03992 17.8696 9.03992C18.5773 6.92096 17.9279 4.79992 15.2677 3.33247C15.4842 3.02302 15.7111 2.73161 15.9484 2.45824C17.1598 1.06156 18.8167 0 20.8149 0C23.6707 0 25.7834 2.11896 27.0594 4.47104C27.1593 4.6556 27.2564 4.84432 27.3508 5.03721L27.5132 5.3869C28.7662 8.15112 27.0594 10.4075 27.0594 10.4075C29.0576 9.40834 30.0984 7.44966 29.2554 4.53141C29.619 4.46544 29.9858 4.41889 30.3544 4.39195C32.1965 4.26289 34.1219 4.68336 35.5331 6.09669C37.5522 8.11573 37.548 11.1089 36.7883 13.6733C36.7286 13.8759 36.6634 14.0778 36.5926 14.279L36.4615 14.6433C35.3916 17.4804 32.5899 17.8696 32.5899 17.8696C34.7089 18.5773 36.8299 17.9279 38.2974 15.2677C38.6068 15.4842 38.8982 15.7111 39.1716 15.9484C40.5683 17.1598 41.6298 18.8167 41.6298 20.8149C41.6298 23.6707 39.5109 25.7834 37.1588 27.0594C36.9742 27.1593 36.7855 27.2564 36.5926 27.3508L36.2429 27.5132C33.4787 28.7662 31.2224 27.0594 31.2224 27.0594C32.2215 29.0576 34.1802 30.0984 37.0984 29.2554C37.165 29.6259 37.2115 29.9922 37.2379 30.3544C37.3669 32.1965 36.9465 34.1219 35.5331 35.5331C33.5141 37.5522 30.5209 37.548 27.9565 36.7883C27.7532 36.7275 27.5513 36.6622 27.3508 36.5926L26.9865 36.4615C24.1495 35.3916 23.7602 32.5899 23.7602 32.5899C23.0525 34.7089 23.7019 36.8299 26.3621 38.2974C26.1509 38.6006 25.9237 38.8925 25.6814 39.1716C24.4721 40.5683 22.8131 41.6298 20.8149 41.6298C17.9591 41.6298 15.8464 39.5109 14.5704 37.1588C14.4692 36.9722 14.372 36.7834 14.279 36.5926L14.1167 36.2429C12.8636 33.4787 14.5704 31.2224 14.5704 31.2224C12.5722 32.2215 11.5315 34.1802 12.3745 37.0984C12.0109 37.1644 11.644 37.2109 11.2754 37.2379C9.43332 37.3669 7.50794 36.9465 6.09669 35.5331C4.07764 33.5141 4.0818 30.5209 4.84155 27.9565C4.90122 27.7539 4.96644 27.552 5.03721 27.3508L5.16834 26.9865C6.23823 24.1495 9.03992 23.7602 9.03992 23.7602C6.92096 23.0525 4.79992 23.7019 3.33247 26.3621C3.02918 26.1509 2.73736 25.9237 2.45824 25.6814C1.06156 24.47 0 22.8131 0 20.8149C0 17.9591 2.11896 15.8464 4.47104 14.5704C4.6556 14.4705 4.84432 14.3734 5.03721 14.279L5.3869 14.1167C8.15112 12.8636 10.4075 14.5704 10.4075 14.5704C9.40834 12.5722 7.44966 11.5315 4.53141 12.3745ZM20.8149 22.8964C21.367 22.8964 21.8964 22.6771 22.2867 22.2867C22.6771 21.8964 22.8964 21.367 22.8964 20.8149C22.8964 20.2629 22.6771 19.7334 22.2867 19.3431C21.8964 18.9527 21.367 18.7334 20.8149 18.7334C20.2629 18.7334 19.7334 18.9527 19.3431 19.3431C18.9527 19.7334 18.7334 20.2629 18.7334 20.8149C18.7334 21.367 18.9527 21.8964 19.3431 22.2867C19.7334 22.6771 20.2629 22.8964 20.8149 22.8964Z" fill="white"></path>
<path d="M76.939 33.2725H68.6474L63.9754 24.3074C63.8912 24.1671 63.6668 23.7743 63.302 23.1289C62.9653 22.4835 62.5865 21.8662 62.1656 21.2769V33.2725H54.5894V9.28141H62.1656V20.1826C62.6426 19.6495 63.0494 19.0742 63.3862 18.4569C63.7509 17.8116 63.9614 17.4328 64.0175 17.3205L68.5211 9.28141H76.5181L71.7199 17.3205C71.6357 17.4328 71.4533 17.7274 71.1727 18.2044C70.8921 18.6814 70.5835 19.1304 70.2468 19.5513C69.9381 19.9441 69.6014 20.3089 69.2366 20.6456C69.7417 21.1226 70.1485 21.5996 70.4572 22.0766C70.7939 22.5256 71.1727 23.1289 71.5936 23.8865L76.939 33.2725ZM100.222 33.2725H92.2668L90.8358 27.2116C90.7797 26.9871 90.6815 26.6083 90.5412 26.0751C90.4289 25.514 90.2886 25.1071 90.1203 24.8545C89.9519 24.574 89.7134 24.3916 89.4047 24.3074C88.6191 24.3354 87.4686 24.3495 85.9534 24.3495V33.2725H78.3773V9.49186C81.7725 9.23932 84.9432 9.11305 87.8895 9.11305C90.5552 9.11305 92.7158 9.33753 94.3713 9.78649C96.0268 10.2074 97.2615 10.951 98.0752 12.0172C98.917 13.0554 99.3379 14.4865 99.3379 16.3104C99.3379 18.022 98.945 19.3689 98.1594 20.351C97.3737 21.305 96.111 21.8802 94.3713 22.0766V22.3292C95.3534 22.4134 96.1671 22.736 96.8125 23.2972C97.4859 23.8304 97.9349 24.5178 98.1594 25.3596L100.222 33.2725ZM85.9534 19.5934C86.2059 19.6214 86.697 19.6354 87.4265 19.6354C89.5871 19.6354 90.8498 19.4531 91.2146 19.0883C91.5513 18.7516 91.7197 17.9659 91.7197 16.7313C91.7197 15.5808 91.411 14.7951 90.7937 14.3742C90.2044 13.9534 89.2224 13.7429 87.8474 13.7429C87.5388 13.7429 86.9074 13.771 85.9534 13.8271V19.5934ZM116.261 28.0113H109.274L108.012 33.2725H100.267L108.012 9.28141H117.903L125.31 33.2725H117.524L116.261 28.0113ZM112.726 14.4584L110.242 23.3393H115.251L112.894 14.4584H112.726ZM126.898 9.28141H144.113V14.5005H134.474V19.2566H142.429V23.8444H134.474V33.2725H126.898V9.28141ZM158.835 33.2725H151.259V14.5426H144.482V9.28141H165.611V14.5426H158.835V33.2725Z" fill="white"></path>
</svg>